<?xml version="1.0" standalone="no"?>
<!DOCTYPE svg PUBLIC "-//W3C//DTD SVG 20010904//EN"
 "http://www.w3.org/TR/2001/REC-SVG-20010904/DTD/svg10.dtd">
<svg version="1.0" xmlns="http://www.w3.org/2000/svg"
 width="700.000000pt" height="700.000000pt" viewBox="0 0 700.000000 700.000000"
 preserveAspectRatio="xMidYMid meet">
<metadata>
Created by potrace 1.11, written by Peter Selinger 2001-2013
</metadata>
<g transform="translate(0.000000,700.000000) scale(0.100000,-0.100000)"
fill="#000000" stroke="none">
<path d="M2431 6987 c-90 -34 -153 -123 -153 -216 -1 -70 19 -118 70 -169 146
-146 401 -34 391 171 -1 29 -7 63 -13 77 -19 46 -68 101 -109 122 -50 25 -139
32 -186 15z"/>
<path d="M5712 6980 c-18 -11 -37 -32 -43 -47 -12 -32 -15 -168 -4 -204 9 -29
45 -70 56 -64 4 3 10 1 14 -5 10 -16 64 -12 96 7 16 9 35 31 44 49 18 39 20
181 3 218 -26 58 -110 81 -166 46z"/>
<path d="M555 6705 c-48 -99 -89 -181 -90 -183 -2 -2 -34 -8 -71 -13 -38 -5
-80 -11 -94 -13 -14 -3 -59 -9 -100 -16 -41 -6 -89 -13 -107 -16 l-32 -5 145
-142 c135 -132 145 -144 140 -172 -3 -16 -8 -43 -10 -60 -3 -16 -16 -92 -29
-168 -20 -115 -22 -137 -10 -133 8 3 87 44 176 91 89 47 165 85 170 85 8 0
194 -96 306 -157 24 -13 45 -22 48 -20 2 3 -11 92 -30 199 l-33 194 143 139
c79 76 141 141 138 144 -6 5 -13 7 -85 16 -25 3 -61 8 -80 10 -19 3 -44 7 -55
9 -11 3 -49 8 -85 12 -36 3 -71 9 -78 13 -7 4 -52 88 -101 187 l-89 179 -87
-180z"/>
<path d="M5368 6634 c-35 -18 -58 -62 -58 -110 0 -54 53 -104 112 -105 164 -3
194 6 222 66 29 61 1 132 -61 156 -39 15 -184 10 -215 -7z"/>
<path d="M5943 6629 c-65 -42 -66 -144 -2 -190 27 -19 44 -22 118 -21 104 1
135 11 161 54 35 58 21 121 -36 159 -43 28 -196 27 -241 -2z"/>
<path d="M5721 6402 c-55 -26 -67 -71 -62 -224 2 -53 55 -108 104 -108 94 0
127 45 127 172 0 64 -5 94 -17 117 -29 50 -98 70 -152 43z"/>
<path d="M2605 6289 c-57 -29 -68 -84 -42 -214 9 -44 18 -96 21 -115 14 -96
17 -117 21 -140 23 -134 23 -608 0 -740 -2 -14 -6 -43 -9 -65 -8 -67 -18 -125
-23 -125 -2 0 -45 25 -96 55 -50 31 -151 85 -224 121 -500 246 -865 245 -979
-1 -20 -43 -62 -203 -155 -595 -22 -91 -22 -92 -32 -130 -8 -29 -133 -539
-283 -1155 -159 -651 -166 -679 -170 -698 -2 -10 -5 -26 -8 -35 -3 -9 -7 -28
-10 -42 -3 -14 -14 -59 -25 -100 -10 -41 -42 -172 -71 -290 -28 -118 -70 -289
-92 -380 -22 -91 -41 -169 -43 -175 -1 -5 -5 -21 -8 -35 -10 -37 -138 -562
-142 -580 -2 -8 -39 -161 -83 -340 -44 -179 -83 -340 -87 -357 l-7 -33 39 14
c21 8 128 49 238 91 110 42 205 77 210 79 6 2 17 6 25 9 8 4 146 56 305 116
160 60 301 114 315 119 14 6 68 26 120 45 181 67 455 169 515 192 33 13 341
130 685 261 344 130 850 322 1125 427 275 104 536 203 579 219 44 15 114 44
156 63 43 19 96 42 119 50 228 80 279 347 142 736 -38 109 -52 142 -117 273
l-55 109 158 -7 c87 -3 169 -8 183 -10 14 -3 52 -7 85 -10 33 -4 71 -8 85 -10
14 -2 48 -7 75 -11 149 -20 523 -116 620 -160 89 -39 150 -36 193 10 54 59 38
145 -34 180 -62 29 -322 112 -441 140 -83 20 -315 65 -356 70 -29 3 -63 7 -77
10 -88 15 -302 28 -482 29 l-146 1 -87 124 c-47 69 -111 156 -141 195 l-55 71
133 64 c161 77 322 153 403 191 33 15 154 73 269 129 114 56 209 101 211 101
1 0 72 33 156 74 264 126 371 177 459 218 497 235 533 254 554 288 39 67 0
152 -77 170 -38 8 -68 -4 -362 -145 -132 -63 -289 -138 -405 -192 -41 -20
-149 -71 -239 -114 -90 -44 -164 -79 -166 -79 -1 0 -87 -41 -191 -91 -104 -50
-216 -104 -249 -119 -33 -15 -112 -52 -175 -83 -63 -30 -173 -83 -245 -117
-171 -82 -219 -104 -227 -104 -3 -1 -30 26 -59 59 -39 46 -237 260 -267 290
-5 5 15 24 128 125 40 36 78 70 84 76 6 5 58 52 116 104 233 208 238 213 246
256 19 102 -99 173 -183 112 -26 -20 -136 -117 -222 -198 -15 -14 -47 -43 -72
-64 -24 -22 -82 -74 -129 -117 -47 -42 -98 -88 -115 -102 l-29 -24 -91 81
c-125 113 -259 224 -392 324 -62 46 -113 88 -113 91 0 4 4 32 10 62 13 72 27
162 35 229 26 201 26 644 1 815 -3 17 -7 48 -10 70 -3 22 -8 54 -11 70 -3 17
-7 44 -10 60 -19 110 -36 180 -48 195 -35 46 -103 63 -152 39z"/>
<path d="M3484 5940 c-46 -15 -119 -84 -139 -132 -78 -192 118 -389 303 -303
176 82 193 309 29 412 -45 29 -138 40 -193 23z"/>
<path d="M4403 5602 l-32 -3 0 -290 0 -289 22 -1 c26 -1 524 -1 548 0 15 1 16
31 16 286 1 189 -3 287 -10 292 -10 6 -484 11 -544 5z"/>
<path d="M6181 5349 c-16 -10 -36 -31 -44 -46 -17 -35 -16 -192 2 -226 40 -74
165 -74 201 0 19 38 22 179 5 220 -26 62 -106 87 -164 52z"/>
<path d="M5805 5192 c-72 -15 -112 -102 -77 -169 23 -42 129 -132 164 -138 87
-16 159 75 124 158 -7 18 -40 57 -74 88 -58 55 -92 70 -137 61z"/>
<path d="M6609 5183 c-45 -18 -145 -124 -152 -160 -18 -94 85 -172 167 -126
30 16 117 106 132 136 22 41 8 105 -30 136 -28 23 -81 29 -117 14z"/>
<path d="M6668 4776 c-36 -12 -78 -67 -78 -101 0 -42 22 -84 54 -103 43 -26
181 -30 229 -7 38 18 67 61 67 102 0 38 -34 91 -68 105 -36 14 -164 17 -204 4z"/>
<path d="M6514 4439 c-45 -23 -71 -109 -46 -155 6 -11 37 -45 70 -77 47 -47
67 -60 100 -64 92 -12 161 83 118 165 -17 31 -101 115 -133 131 -26 13 -81 13
-109 0z"/>
<path d="M6181 4299 c-16 -10 -35 -28 -42 -41 -18 -33 -19 -175 -2 -219 32
-83 154 -92 203 -15 20 30 22 192 3 228 -29 59 -106 81 -162 47z"/>
<path d="M6285 2673 c-194 -64 -214 -337 -31 -428 184 -92 387 86 322 282 -17
53 -68 109 -123 137 -43 21 -119 26 -168 9z"/>
<path d="M5263 1974 c-59 -29 -83 -91 -58 -151 18 -43 51 -62 137 -79 237 -49
499 -177 681 -335 73 -63 147 -138 147 -148 0 -3 -24 -12 -54 -19 -113 -26
-259 -118 -332 -208 -21 -27 -42 -51 -45 -54 -4 -3 -18 -27 -32 -55 -117 -224
-30 -505 190 -622 186 -99 405 -68 552 79 78 77 134 203 147 328 3 36 7 66 8
67 1 1 14 -21 28 -50 89 -177 93 -334 12 -517 -27 -62 -34 -90 -30 -114 12
-57 61 -96 123 -96 39 0 81 37 112 98 152 302 95 674 -142 929 -17 17 -59 53
-94 80 -44 32 -85 78 -130 140 -176 248 -370 419 -635 561 -132 70 -315 136
-453 162 -33 6 -69 13 -80 15 -11 2 -34 -3 -52 -11z m1037 -970 c55 -46 64
-77 64 -199 0 -127 -22 -198 -77 -255 -129 -133 -356 -70 -394 110 -13 60 -8
94 23 157 51 106 207 207 326 212 15 1 40 -10 58 -25z"/>
</g>
</svg>
